<svg width="30" height="30" viewBox="0 0 30 30" fill="none" xmlns="http://www.w3.org/2000/svg">
<g id="Frame">
<g id="Group">
<g id="Group_2">
<path id="Vector" d="M27.819 17.2175L27.8192 17.2174C28.1002 17.1745 28.3553 17.3753 28.3958 17.6581C28.8006 20.4788 29.068 22.889 29.1906 24.8211C29.303 26.5947 28.0586 28.1551 26.3499 28.3673C23.8475 28.6781 20.1793 29.0284 16.3602 29.0284C15.9644 29.0284 15.567 29.0247 15.1691 29.0167C10.9315 29.102 6.74981 28.7103 3.9883 28.3673C2.27953 28.1551 1.03508 26.5947 1.14754 24.8211C1.55884 18.3338 3.49538 8.3985 3.67657 7.47891C3.6948 7.21076 3.91036 6.99276 4.18175 6.99276H8.89532C9.01512 5.38279 9.69396 3.89816 10.8383 2.76928L10.9085 2.84047L10.8383 2.76927C11.0419 2.56844 11.3648 2.57746 11.5577 2.78864L11.5577 2.78865C11.7485 2.99769 11.7404 3.32663 11.5391 3.52533L11.5391 3.52534C10.597 4.45464 10.0303 5.67056 9.913 6.99271H10.7472C10.995 4.68942 12.88 2.88717 15.169 2.88717C17.458 2.88717 19.3413 4.6897 19.5893 6.99276H20.4249C20.1735 4.20285 17.9095 2.01748 15.1691 2.01748C14.3945 2.01748 13.6483 2.18859 12.9504 2.52627C12.9504 2.52628 12.9504 2.52628 12.9504 2.52628L12.9069 2.43627C12.7031 2.5349 12.461 2.44305 12.3661 2.23125L27.819 17.2175ZM27.819 17.2175C27.5392 17.2609 27.3524 17.5294 27.3928 17.8113L27.4918 17.7971M27.819 17.2175L27.4918 17.7971M27.4918 17.7971L27.3928 17.8113C27.7939 20.6061 28.0582 22.9874 28.1788 24.8894C28.2565 26.1147 27.3966 27.1837 26.2286 27.3287C23.4961 27.6681 19.3625 28.0547 15.1823 27.9707M27.4918 17.7971L15.1823 27.9707M15.1823 27.9707L15.1822 27.9707C15.1822 27.9707 15.1822 27.9707 15.1823 27.9707ZM25.6291 8.03878H4.70911C4.73024 8.33552 4.76489 8.63555 4.79911 8.9319L4.79913 8.93208L4.80134 8.95152C5.23995 12.7483 6.37876 15.3698 8.37393 17.2212C9.03165 17.8315 9.77096 18.3651 10.5713 18.8072C11.413 19.2721 12.3156 19.598 13.2429 19.7867V19.1302C13.2429 18.4589 13.7691 17.9063 14.4241 17.9063H15.9141C16.5691 17.9063 17.0953 18.4589 17.0953 19.1302V19.787C18.0226 19.5983 18.9252 19.2721 19.7669 18.8072C23.0436 16.9974 24.9895 13.6897 25.5368 8.95171L25.6291 8.03878ZM25.6291 8.03878C25.608 8.3355 25.5734 8.63549 25.5391 8.93188L25.5391 8.93208L25.5369 8.95152L25.6291 8.03878ZM4.10942 27.3287C6.84202 27.6682 10.9757 28.0555 15.1558 27.9707L4.10942 27.3287ZM4.10942 27.3287C2.9415 27.1837 2.08159 26.1148 2.15924 24.8894M4.10942 27.3287L2.15924 24.8894M2.15924 24.8894C2.43636 20.5185 3.41748 14.5439 4.07204 10.8889M2.15924 24.8894L4.07204 10.8889M4.07204 10.8889C4.6732 13.9887 5.84253 16.2794 7.69566 17.9989C8.41419 18.6656 9.22062 19.2478 10.0926 19.7294C11.0829 20.2763 12.1491 20.6495 13.2428 20.8503V21.4026C13.2428 22.0739 13.769 22.6265 14.424 22.6265H15.914C16.569 22.6265 17.0952 22.0739 17.0952 21.4026V20.8494M4.07204 10.8889L17.0952 20.8494M17.0952 20.8494C18.1888 20.6487 19.255 20.2764 20.2454 19.7294C22.1362 18.685 23.6378 17.1684 24.7079 15.2236C25.4081 13.9509 25.9276 12.4869 26.2609 10.8562C26.5131 12.2612 26.8141 14.0118 27.1037 15.8777L17.0952 20.8494ZM16.0813 21.4026C16.0813 21.5043 16.0026 21.5805 15.9141 21.5805H14.4241C14.3356 21.5805 14.2569 21.5043 14.2569 21.4026V19.1302C14.2569 19.0286 14.3356 18.9523 14.4241 18.9523H15.9141C16.0026 18.9523 16.0813 19.0285 16.0813 19.1302V21.4026ZM15.169 3.93324C16.892 3.93324 18.3261 5.26208 18.5677 6.99271H11.7694C12.011 5.26202 13.4459 3.93324 15.169 3.93324Z" fill="#0970CD" stroke="#0970CD" stroke-width="0.2"/>
</g>
</g>
</g>
</svg>
