<svg width="30" height="30" viewBox="0 0 30 30" fill="none" xmlns="http://www.w3.org/2000/svg">
<g id="Frame">
<g id="Group">
<g id="28">
<path id="Vector" d="M29.2049 6.1899L24.4931 1.54548C24.4084 1.4671 24.2991 1.42006 24.1836 1.41223C24.0428 1.40287 11.6535 1.40623 11.5124 1.40623C11.3842 1.40623 11.2613 1.45682 11.1706 1.54687C11.08 1.63692 11.0291 1.75905 11.0291 1.8864V15.1617H10.4061V5.57797C10.4061 5.45062 10.3552 5.32849 10.2645 5.23844C10.1739 5.14839 10.051 5.0978 9.92278 5.0978H7.35614C7.22796 5.0978 7.10503 5.14839 7.0144 5.23844C6.92376 5.32849 6.87284 5.45062 6.87284 5.57797V15.1617H6.24981V7.86138C6.24984 7.78002 6.22905 7.69998 6.1894 7.62879L4.81029 5.15499C4.76479 5.08461 4.70222 5.02672 4.62833 4.98662C4.55444 4.94653 4.4716 4.92552 4.3874 4.92552C4.30321 4.92552 4.22037 4.94653 4.14648 4.98662C4.07259 5.02672 4.01002 5.08461 3.96451 5.15499L2.58541 7.62879C2.54576 7.69998 2.52497 7.78002 2.52499 7.86138V15.1617H1.97403C1.84585 15.1617 1.72292 15.2123 1.63228 15.3024C1.54164 15.3924 1.49072 15.5146 1.49072 15.6419V26.6022C1.49093 27.3053 1.77181 27.9795 2.27177 28.4771C2.77172 28.9746 3.4499 29.2549 4.15754 29.2563C11.1043 29.2563 10.7965 29.2937 11.2798 29.189C11.3501 29.2312 11.4302 29.2544 11.5123 29.2563H28.8646C28.928 29.2563 28.9909 29.2439 29.0496 29.2198C29.1082 29.1957 29.1615 29.1603 29.2064 29.1157C29.2513 29.0711 29.2869 29.0182 29.3112 28.9599C29.3354 28.9016 29.3479 28.8392 29.3479 28.7761V6.53083C29.3428 6.40385 29.292 6.2829 29.2049 6.1899ZM24.636 3.03925L27.6911 6.0506H24.636V3.03925ZM7.83945 6.05814H9.43947V15.1617H7.83945V6.05814ZM3.49146 7.98541L4.38726 6.37866L5.28306 7.98541V15.1617H3.49146V7.98541ZM4.15754 28.2959C3.70619 28.2948 3.27371 28.1159 2.95499 27.7983C2.63627 27.4808 2.45735 27.0506 2.45748 26.6022V16.1219H12.4077V26.6022C12.4093 26.9414 12.308 27.2732 12.117 27.5543C11.9259 27.8354 11.6541 28.0527 11.3368 28.178C10.8535 28.3637 11.0064 28.2959 4.15754 28.2959ZM12.7661 28.2959C13.5732 27.3252 13.3744 27.6015 13.3744 15.6419C13.3744 15.5146 13.3235 15.3924 13.2329 15.3024C13.1422 15.2123 13.0193 15.1617 12.8911 15.1617H11.9957V2.36657H23.6694V6.53083C23.6694 6.65818 23.7203 6.78031 23.8109 6.87036C23.9016 6.96041 24.0245 7.011 24.1527 7.011H28.3811V28.2959H12.7661Z" fill="#0970CD"/>
<path id="Vector_2" d="M13.9695 8.39893H19.2559V9.35927H13.9695V8.39893Z" fill="#0970CD"/>
<path id="Vector_3" d="M13.9695 6.14795H22.3973V7.1083H13.9695V6.14795Z" fill="#0970CD"/>
<path id="Vector_4" d="M13.9695 3.72827H22.3973V4.68862H13.9695V3.72827Z" fill="#0970CD"/>
<path id="Vector_5" d="M13.9695 10.6495H19.2559V11.6099H13.9695V10.6495Z" fill="#0970CD"/>
<path id="Vector_6" d="M13.9695 12.9006H19.2559V13.861H13.9695V12.9006Z" fill="#0970CD"/>
<path id="Vector_7" d="M13.9695 15.1512H26.314V16.1116H13.9695V15.1512Z" fill="#0970CD"/>
<path id="Vector_8" d="M13.9695 17.4022H26.314V18.3626H13.9695V17.4022Z" fill="#0970CD"/>
<path id="Vector_9" d="M13.9695 19.6528H26.314V20.6132H13.9695V19.6528Z" fill="#0970CD"/>
<path id="Vector_10" d="M13.9695 21.9038H26.314V22.8642H13.9695V21.9038Z" fill="#0970CD"/>
<path id="Vector_11" d="M13.9695 24.1544H26.314V25.1148H13.9695V24.1544Z" fill="#0970CD"/>
<path id="Vector_12" d="M13.9695 26.4055H26.314V27.3659H13.9695V26.4055Z" fill="#0970CD"/>
<path id="Vector_13" d="M26.3141 8.3988H20.6449C20.5167 8.3988 20.3938 8.44939 20.3032 8.53944C20.2125 8.62949 20.1616 8.75163 20.1616 8.87898V13.3806C20.1616 13.508 20.2125 13.6301 20.3032 13.7201C20.3938 13.8102 20.5167 13.8608 20.6449 13.8608H26.3141C26.4423 13.8608 26.5652 13.8102 26.6558 13.7201C26.7465 13.6301 26.7974 13.508 26.7974 13.3806V8.87898C26.7974 8.75163 26.7465 8.62949 26.6558 8.53944C26.5652 8.44939 26.4423 8.3988 26.3141 8.3988ZM25.8308 12.9004H21.1282V9.35915H25.8308V12.9004Z" fill="#0970CD"/>
</g>
</g>
</g>
</svg>
