<svg width="30" height="30" viewBox="0 0 30 30" fill="none" xmlns="http://www.w3.org/2000/svg">
<g id="Frame" clip-path="url(#clip0_1_1233)">
<g id="Group">
<path id="Vector" d="M17.8459 16.1049H16.9753V16.9754H17.8459V16.1049Z" fill="#0970CD"/>
<path id="Vector_2" d="M19.5871 16.1049H18.7166V16.9754H19.5871V16.1049Z" fill="#0970CD"/>
<path id="Vector_3" d="M20.9287 18.9715C21.1832 18.4901 21.32 17.9552 21.328 17.4107V16.1049C21.4434 16.1049 21.5541 16.0591 21.6357 15.9774C21.7174 15.8958 21.7632 15.7851 21.7632 15.6697V14.3639C21.7626 13.7869 21.533 13.2337 21.125 12.8257C20.717 12.4177 20.1639 12.1882 19.5869 12.1875H18.2811V11.317C18.2811 11.2015 18.2353 11.0908 18.1536 11.0092C18.072 10.9276 17.9613 10.8817 17.8458 10.8817C17.5401 10.9068 17.2464 11.0118 16.9941 11.1864C16.7419 11.3609 16.54 11.5987 16.4087 11.8759L15.9772 11.4445C15.9319 11.3987 15.8769 11.3636 15.8162 11.3419C15.7555 11.3202 15.6907 11.3124 15.6266 11.3191C15.5625 11.3254 15.5006 11.3459 15.4454 11.3791C15.3902 11.4122 15.343 11.4572 15.3073 11.5108C15.0987 11.7912 14.9568 12.1156 14.8927 12.4592C14.8285 12.8028 14.8437 13.1565 14.9371 13.4933H14.3637C14.2483 13.4933 14.1375 13.5392 14.0559 13.6208C13.9743 13.7024 13.9284 13.8131 13.9284 13.9286C13.9284 14.8011 14.8194 15.5783 15.2342 15.8928V17.4107C15.2422 17.9552 15.379 18.4901 15.6335 18.9715L13.6566 20.553C13.6056 20.5938 13.5644 20.6455 13.5361 20.7043C13.5079 20.7632 13.4932 20.8276 13.4932 20.8929V22.1987C13.4932 22.3141 13.539 22.4248 13.6207 22.5065C13.7023 22.5881 13.813 22.634 13.9284 22.634C14.0439 22.634 14.1546 22.5881 14.2362 22.5065C14.3178 22.4248 14.3637 22.3141 14.3637 22.1987V21.102L16.1541 19.6697C16.2724 19.7863 16.4016 19.8912 16.54 19.9831V20.0223C16.54 20.4841 16.7235 20.927 17.05 21.2535C17.3765 21.58 17.8193 21.7634 18.2811 21.7634C18.7429 21.7634 19.1857 21.58 19.5122 21.2535C19.8387 20.927 20.0222 20.4841 20.0222 20.0223V19.9831C20.1606 19.8912 20.2898 19.7863 20.4081 19.6697L22.1985 21.102V25.2456H19.1516V24.375H20.8927C21.0081 24.375 21.1189 24.3292 21.2005 24.2475C21.2821 24.1659 21.328 24.0552 21.328 23.9398V22.634C21.328 22.5185 21.2821 22.4078 21.2005 22.3262C21.1189 22.2445 21.0081 22.1987 20.8927 22.1987C20.7773 22.1987 20.6665 22.2445 20.5849 22.3262C20.5033 22.4078 20.4574 22.5185 20.4574 22.634V23.5045H17.8458C17.4996 23.5049 17.1677 23.6426 16.9229 23.8874C16.6781 24.1322 16.5404 24.4641 16.54 24.8103V25.2456H15.2342V24.8103C15.2339 24.4641 15.0962 24.1322 14.8514 23.8874C14.6066 23.6426 14.2746 23.5049 13.9284 23.5045H12.6226V17.846C12.6226 17.7306 12.5768 17.6198 12.4951 17.5382C12.4135 17.4566 12.3028 17.4107 12.1874 17.4107H5.22311C5.10767 17.4107 4.99696 17.4566 4.91533 17.5382C4.8337 17.6198 4.78784 17.7306 4.78784 17.846V27.4219C4.78784 27.5373 4.8337 27.6481 4.91533 27.7297C4.99696 27.8113 5.10767 27.8572 5.22311 27.8572H22.6338C22.7492 27.8572 22.8599 27.8113 22.9415 27.7297C23.0232 27.6481 23.069 27.5373 23.069 27.4219V20.8929C23.069 20.8276 23.0543 20.7632 23.0261 20.7043C22.9978 20.6455 22.9566 20.5938 22.9056 20.553L20.9287 18.9715ZM18.2811 19.5883C16.1815 19.5883 16.1065 17.6333 16.1048 17.412V15.7908C16.1942 15.6349 16.3202 15.5029 16.4718 15.4062C16.6234 15.3095 16.7962 15.251 16.9753 15.2357C17.1679 15.2577 17.3522 15.3267 17.512 15.4365C17.6718 15.5463 17.8022 15.6937 17.8918 15.8656C17.9279 15.9373 17.9833 15.9977 18.0516 16.0399C18.1199 16.0821 18.1986 16.1046 18.279 16.1049H18.2817C18.3618 16.1047 18.4402 16.0824 18.5085 16.0407C18.5769 15.9989 18.6324 15.9393 18.6692 15.8681C18.7586 15.6956 18.8891 15.5477 19.0491 15.4374C19.2091 15.3271 19.3938 15.2578 19.5869 15.2356C19.7661 15.2509 19.9388 15.3094 20.0905 15.4061C20.2421 15.5028 20.368 15.6348 20.4574 15.7908V17.4105C20.4557 17.6333 20.3807 19.5883 18.2811 19.5883ZM15.6695 14.3639C15.7556 14.3639 15.8397 14.3383 15.9113 14.2905C15.9829 14.2427 16.0387 14.1747 16.0716 14.0952C16.1046 14.0156 16.1132 13.9281 16.0964 13.8437C16.0796 13.7593 16.0381 13.6817 15.9772 13.6209C15.8481 13.4654 15.7625 13.2785 15.7292 13.0791C15.6958 12.8798 15.716 12.6751 15.7877 12.4861L16.2323 12.9306C16.2847 12.983 16.3497 13.0212 16.4211 13.0415C16.4925 13.0617 16.5678 13.0634 16.64 13.0464C16.7122 13.0294 16.7789 12.9942 16.8336 12.9441C16.8884 12.8941 16.9295 12.8309 16.953 12.7605C17.055 12.4741 17.2102 12.2095 17.4106 11.9807V12.6228C17.4106 12.7382 17.4564 12.8489 17.5381 12.9306C17.6197 13.0122 17.7304 13.0581 17.8458 13.0581H19.5869C19.9331 13.0584 20.265 13.1961 20.5098 13.4409C20.7547 13.6857 20.8923 14.0177 20.8927 14.3639V14.9466C20.7282 14.7632 20.5269 14.6166 20.3019 14.5162C20.0769 14.4157 19.8333 14.3639 19.5869 14.3639C19.3405 14.3639 19.0969 14.4157 18.8719 14.5162C18.647 14.6166 18.4456 14.7632 18.2811 14.9466C18.1145 14.7658 17.9128 14.6209 17.6883 14.5207C17.4637 14.4205 17.2212 14.3671 16.9753 14.3639C16.7062 14.3693 16.4414 14.4334 16.1996 14.5518C15.9578 14.6701 15.7448 14.8398 15.5754 15.0491C15.3362 14.8516 15.1266 14.6208 14.9528 14.3639H15.6695ZM18.2811 20.8929C18.1127 20.8926 17.9481 20.8435 17.807 20.7515C17.666 20.6595 17.5547 20.5286 17.4865 20.3746C18.0105 20.4853 18.5518 20.4853 19.0757 20.3746C19.0076 20.5286 18.8962 20.6595 18.7552 20.7515C18.6142 20.8435 18.4495 20.8926 18.2811 20.8929ZM17.4106 24.8103C17.4107 24.6949 17.4566 24.5843 17.5382 24.5027C17.6198 24.4211 17.7305 24.3752 17.8458 24.375H18.2811V25.2456H17.4106V24.8103ZM14.3637 24.8103V25.2456H5.65838V24.375H13.9284C14.0438 24.3752 14.1545 24.4211 14.236 24.5027C14.3176 24.5843 14.3636 24.6949 14.3637 24.8103ZM5.65838 18.2813H11.7521V23.5045H5.65838V18.2813ZM22.1985 26.9866H5.65838V26.1161H22.1985V26.9866Z" fill="#0970CD"/>
<path id="Vector_4" d="M8.70522 19.587C8.44695 19.587 8.19449 19.6636 7.97975 19.8071C7.76501 19.9506 7.59765 20.1545 7.49881 20.3931C7.39998 20.6317 7.37412 20.8943 7.42451 21.1476C7.47489 21.4009 7.59926 21.6336 7.78188 21.8162C7.9645 21.9988 8.19717 22.1232 8.45047 22.1736C8.70377 22.2239 8.96632 22.1981 9.20493 22.0992C9.44353 22.0004 9.64747 21.833 9.79095 21.6183C9.93444 21.4036 10.011 21.1511 10.011 20.8928C10.0106 20.5466 9.87295 20.2147 9.62814 19.9699C9.38334 19.7251 9.05142 19.5874 8.70522 19.587ZM8.70522 21.3281C8.61913 21.3281 8.53498 21.3026 8.4634 21.2548C8.39182 21.2069 8.33603 21.1389 8.30308 21.0594C8.27014 20.9799 8.26152 20.8924 8.27831 20.8079C8.29511 20.7235 8.33656 20.6459 8.39744 20.5851C8.45831 20.5242 8.53587 20.4827 8.6203 20.4659C8.70474 20.4491 8.79225 20.4578 8.87179 20.4907C8.95132 20.5237 9.0193 20.5794 9.06713 20.651C9.11496 20.7226 9.14049 20.8068 9.14049 20.8928C9.14034 21.0082 9.09443 21.1189 9.01283 21.2005C8.93124 21.2821 8.82061 21.328 8.70522 21.3281Z" fill="#0970CD"/>
<path id="Vector_5" d="M27.7015 11.4188L14.2083 0.101805C14.1299 0.0360455 14.0309 0 13.9286 0C13.8263 0 13.7272 0.0360455 13.6489 0.101805L0.155624 11.4188C0.0871573 11.4762 0.0380128 11.5532 0.0148636 11.6395C-0.00828555 11.7258 -0.00431774 11.8171 0.0262283 11.9011C0.0567743 11.985 0.112418 12.0576 0.185605 12.1088C0.258791 12.16 0.345974 12.1875 0.435314 12.1875H3.48219V27.4219C3.48219 27.5373 3.52805 27.648 3.60968 27.7297C3.69131 27.8113 3.80202 27.8571 3.91746 27.8571C4.0329 27.8571 4.14361 27.8113 4.22524 27.7297C4.30687 27.648 4.35273 27.5373 4.35273 27.4219V11.7522C4.35273 11.6368 4.30687 11.5261 4.22524 11.4445C4.14361 11.3628 4.0329 11.317 3.91746 11.317H1.63166L13.9286 1.00337L26.2255 11.317H23.9397C23.8242 11.317 23.7135 11.3628 23.6319 11.4445C23.5503 11.5261 23.5044 11.6368 23.5044 11.7522V27.4219C23.5044 27.5373 23.5503 27.648 23.6319 27.7297C23.7135 27.8113 23.8242 27.8571 23.9397 27.8571C24.0551 27.8571 24.1658 27.8113 24.2475 27.7297C24.3291 27.648 24.375 27.5373 24.375 27.4219V12.1875H27.4218C27.5112 12.1875 27.5984 12.16 27.6715 12.1088C27.7447 12.0576 27.8004 11.985 27.8309 11.9011C27.8615 11.8171 27.8654 11.7258 27.8423 11.6395C27.8191 11.5532 27.77 11.4762 27.7015 11.4188H27.7015Z" fill="#0970CD"/>
<path id="Vector_6" d="M5.50505 10.778L13.9286 3.61814L22.3521 10.778C22.44 10.8527 22.554 10.8895 22.669 10.8801C22.7841 10.8708 22.8907 10.8162 22.9654 10.7282C23.0402 10.6403 23.0769 10.5263 23.0676 10.4112C23.0583 10.2962 23.0036 10.1896 22.9157 10.1149L14.2104 2.7153C14.1317 2.64842 14.0318 2.61169 13.9286 2.61169C13.8253 2.61169 13.7254 2.64842 13.6467 2.7153L4.94141 10.1149C4.85348 10.1896 4.79884 10.2962 4.78951 10.4112C4.78018 10.5263 4.81693 10.6403 4.89168 10.7282C4.96642 10.8162 5.07303 10.8708 5.18806 10.8801C5.30309 10.8895 5.41711 10.8527 5.50505 10.778Z" fill="#0970CD"/>
</g>
</g>
<defs>
<clipPath id="clip0_1_1233">
<rect width="30" height="30" fill="white"/>
</clipPath>
</defs>
</svg>
