<svg width="30" height="30" viewBox="0 0 30 30" fill="none" xmlns="http://www.w3.org/2000/svg">
<g id="Frame">
<g id="Group">
<g id="Group_2">
<path id="Vector" d="M25.7123 5.98012C25.7055 5.97876 25.6986 5.97724 25.6918 5.97588C25.4687 4.99995 24.0346 4.51647 22.9664 5.05534C21.1321 4.07658 20.9412 2.89427 20.9329 2.83562C20.8507 1.70386 16.3534 1.60718 14.9012 1.60718C13.4488 1.60718 8.95281 1.70392 8.8694 2.83513C8.85743 2.91647 8.65323 4.08582 6.83537 5.05566C5.76895 4.51642 4.33345 5.00163 4.11057 5.97582C2.51412 6.29558 1.5083 7.38779 1.5083 8.5752C1.5083 8.58554 1.50879 8.59588 1.50977 8.60616C1.52496 8.76079 1.90138 12.4357 3.6979 16.1758C5.2814 19.4724 7.9295 22.7024 12.3119 23.6343C11.9631 24.5114 11.3721 25.036 11.1191 25.2307H10.1381C9.85618 25.2307 9.58417 25.3104 9.37227 25.4552L7.87723 26.4765C7.62656 26.6477 7.48275 26.8948 7.48275 27.1542V28.5621C7.48275 29.0596 8.00326 29.4643 8.64308 29.4643H13.6766C13.9665 29.4643 14.2014 29.2816 14.2014 29.0562C14.2014 28.8308 13.9665 28.6481 13.6766 28.6481H8.64301C8.58199 28.6481 8.53238 28.6095 8.53238 28.5621V27.1542C8.53238 27.1295 8.54602 27.1059 8.56995 27.0896L10.065 26.0683C10.0852 26.0545 10.1112 26.0468 10.1381 26.0468H11.322H18.4803H19.6642C19.6911 26.0468 19.717 26.0545 19.7372 26.0683L21.2323 27.0896C21.2562 27.106 21.2699 27.1295 21.2699 27.1543V28.5621C21.2699 28.6096 21.2203 28.6482 21.1592 28.6482H16.1257C15.8358 28.6482 15.6009 28.8308 15.6009 29.0563C15.6009 29.2817 15.8358 29.4643 16.1257 29.4643H21.1592C21.7991 29.4643 22.3196 29.0596 22.3196 28.5621V27.1543C22.3196 26.8948 22.1758 26.6477 21.9251 26.4766L20.43 25.4553C20.2181 25.3105 19.9461 25.2308 19.6642 25.2308H18.6834C18.4289 25.035 17.8387 24.5105 17.4904 23.6344C21.8596 22.7053 24.5044 19.4918 26.0891 16.2075C26.1908 15.9965 26.0534 15.7612 25.782 15.6821C25.5106 15.603 25.2081 15.7098 25.1062 15.9209C23.5678 19.1095 21.0422 22.2345 16.7394 22.9366C14.9919 23.2233 13.7601 23.0141 13.0286 22.9324C9.45086 22.338 6.65069 19.9817 4.68832 15.9052C2.99705 12.3918 2.58641 8.82342 2.558 8.55948C2.56674 7.74275 3.25255 7.03005 4.24479 6.79397C4.41197 7.07755 4.6998 7.31417 5.06642 7.45727C4.38083 7.72496 3.97005 8.31981 4.11001 8.93664V8.9367C4.2499 9.55375 4.89812 10.0027 5.66048 10.0718C4.44647 11.0708 5.65341 12.69 7.36623 12.3726C7.0656 12.9124 7.23138 13.5749 7.85777 13.9835C8.47177 14.3841 9.33861 14.4091 9.98382 14.0793C9.93925 14.6748 10.3964 15.2487 11.1535 15.463H11.1535C11.9132 15.6779 12.7361 15.4645 13.1932 14.9868C13.6986 16.3023 16.1038 16.3022 16.6092 14.9868C17.6648 16.0898 19.9209 15.447 19.8186 14.0793C21.2943 14.834 23.1324 13.6296 22.4351 12.3724C24.1629 12.6934 25.3457 11.0634 24.1426 10.0723C25.8966 9.91562 26.3107 8.06996 24.7379 7.45727C24.9989 7.35558 25.2249 7.20459 25.3971 7.01345C25.46 6.94359 25.5136 6.87014 25.5584 6.79419C26.5501 7.03038 27.2356 7.74302 27.2443 8.55953C27.2208 8.77853 26.9347 11.285 25.8643 14.1416C25.7832 14.3579 25.9431 14.5844 26.2214 14.6474C26.5001 14.7106 26.7911 14.5859 26.8721 14.3698C28.0174 11.3133 28.2818 8.71531 28.2925 8.60622C28.2936 8.59588 28.294 8.58554 28.294 8.5752C28.2941 7.35013 27.2324 6.28296 25.7123 5.98012ZM13.3421 23.8059C14.3615 23.93 15.4391 23.9302 16.4602 23.8059C16.6888 24.4119 17.0174 24.8845 17.3248 25.2307H12.4775C12.7849 24.8845 13.1136 24.4118 13.3421 23.8059ZM23.3994 5.83191C23.8089 5.48647 24.5535 5.65644 24.6586 6.11963C24.7278 6.42529 24.4684 6.72427 24.0641 6.77977C23.6641 6.83429 23.2854 6.62721 23.215 6.31751C23.1772 6.15069 23.2303 5.98039 23.3994 5.83191ZM14.9012 2.42331C17.3871 2.42331 19.0184 2.67495 19.6559 2.87186C18.5053 3.22687 16.1469 3.32051 14.9012 3.32051C13.6719 3.32051 11.2857 3.22562 10.1465 2.87186C10.7839 2.675 12.4152 2.42331 14.9012 2.42331ZM5.44515 5.75177C5.97742 5.46188 6.70052 5.81782 6.58729 6.31746C6.44334 6.95143 5.22905 6.95524 5.13409 6.24868C5.12079 6.04802 5.23941 5.86374 5.44515 5.75177ZM5.14368 8.79491C5.07356 8.48548 5.34025 8.18934 5.73815 8.13476C6.13669 8.08052 6.51703 8.2876 6.58729 8.59702C6.65762 8.90726 6.3917 9.20237 5.99274 9.25716C5.59372 9.31184 5.21415 9.10509 5.14368 8.79491ZM7.3218 11.5175C6.97106 11.675 6.52312 11.5818 6.3206 11.309C6.03949 10.9303 6.39205 10.4543 6.95412 10.4543C7.70179 10.4543 7.96869 11.2271 7.3218 11.5175ZM9.56507 13.2881C9.14673 13.6756 8.33027 13.476 8.27345 12.9715C8.23811 12.6578 8.53615 12.3817 8.93973 12.3542C9.58557 12.3094 9.98452 12.8995 9.56507 13.2881ZM12.4519 14.3555C12.3137 14.6507 11.8922 14.8035 11.5125 14.6961C11.1327 14.5886 10.9362 14.261 11.0744 13.9658C11.2126 13.6705 11.6339 13.5177 12.0138 13.6252C12.3936 13.7326 12.5901 14.0603 12.4519 14.3555ZM14.9012 15.1606C14.4971 15.1606 14.1683 14.905 14.1683 14.5907C14.1683 14.2765 14.497 14.0209 14.9012 14.0209C15.3053 14.0209 15.6341 14.2765 15.6341 14.5907C15.6341 14.905 15.3053 15.1606 14.9012 15.1606ZM18.29 14.696C17.9101 14.8035 17.4888 14.6507 17.3505 14.3555C17.2123 14.0602 17.4088 13.7326 17.7886 13.6251C18.1677 13.5176 18.5897 13.67 18.728 13.9657C18.8661 14.2609 18.6697 14.5886 18.29 14.696ZM21.2699 13.3584C20.7716 13.6838 20.0118 13.3762 20.0687 12.8722C20.1256 12.367 20.9422 12.1682 21.3603 12.5556C21.6201 12.7963 21.5795 13.1565 21.2699 13.3584ZM21.2112 11.5733C20.0444 11.3595 18.9506 12.0763 19.019 13.0045C18.0047 12.4872 16.671 12.8837 16.3317 13.7648C16.0065 13.4253 15.4863 13.2048 14.9012 13.2048C14.3161 13.2048 13.7959 13.4253 13.4707 13.7648C13.1326 12.8873 11.8006 12.4847 10.7822 13.0051C10.8523 12.0803 9.76206 11.3588 8.59123 11.5733C9.06422 10.7187 8.34819 9.75588 7.16028 9.64777C7.53383 9.33981 7.72264 8.90329 7.62103 8.45529C7.51935 8.00679 7.14923 7.64655 6.66189 7.45667C7.14888 7.26673 7.51935 6.90747 7.62103 6.45919C7.6824 6.1884 7.63733 5.92201 7.50997 5.68544C8.79725 4.97862 9.39949 4.16657 9.67871 3.60382C11.0307 4.04181 13.4773 4.13653 14.9012 4.13653C16.2513 4.13653 18.8903 4.02608 20.1228 3.60414C20.4013 4.16657 21.003 4.97764 22.2915 5.68495C22.1607 5.9274 22.1212 6.19406 22.1814 6.45914C22.283 6.90752 22.6536 7.26678 23.1407 7.45672C22.0758 7.87153 21.8165 8.96559 22.6401 9.64717C21.4476 9.75751 20.7406 10.7231 21.2112 11.5733ZM23.4817 11.3089C23.2792 11.5818 22.8314 11.6749 22.4805 11.5175C22.1306 11.3603 22.0102 11.0111 22.2122 10.739C22.415 10.4662 22.8625 10.373 23.2134 10.5305C23.5634 10.6877 23.6838 11.0369 23.4817 11.3089ZM23.8096 9.25722C23.4106 9.20248 23.1447 8.90726 23.215 8.59708C23.3278 8.10054 24.1621 7.95266 24.5373 8.36916C24.9101 8.78332 24.4513 9.34471 23.8096 9.25722Z" fill="#0970CD"/>
</g>
</g>
</g>
</svg>
