<svg width="30" height="30" viewBox="0 0 30 30" fill="none" xmlns="http://www.w3.org/2000/svg">
<g id="Frame">
<g id="Group">
<g id="Group_2">
<path id="Vector" d="M20.0307 19.3748C19.8302 19.2378 19.7786 18.9643 19.9155 18.7637C20.7071 17.6043 21.1255 16.2486 21.1255 14.8433C21.1255 10.9992 17.9981 7.87177 14.154 7.87177C10.3098 7.87177 7.18242 10.9992 7.18242 14.8433C7.18242 18.6874 10.3098 21.8148 14.154 21.8148C15.8428 21.8148 17.4734 21.2002 18.7456 20.0842C18.9281 19.9241 19.2059 19.9422 19.366 20.1247C19.5262 20.3073 19.508 20.5851 19.3255 20.7452C17.8929 22.002 16.0563 22.6941 14.154 22.6941C9.82501 22.6941 6.3031 19.1722 6.3031 14.8432C6.3031 10.5142 9.82501 6.99233 14.154 6.99233C18.483 6.99233 22.0049 10.5143 22.0049 14.8433C22.0049 16.4262 21.5336 17.9534 20.6418 19.2595C20.505 19.4601 20.2314 19.5117 20.0307 19.3748Z" fill="#0970CD"/>
<path id="Vector_2" d="M19.1024 17.3517C18.9926 17.5683 18.728 17.6548 18.5114 17.5451L15.3333 15.934C15.0395 16.2515 14.6196 16.4507 14.154 16.4507C13.803 16.4507 13.4783 16.3373 13.2137 16.1458L11.5006 17.498C11.3099 17.6485 11.0335 17.6159 10.883 17.4254C10.7326 17.2348 10.7651 16.9583 10.9557 16.8078L12.6682 15.456C12.59 15.2671 12.5466 15.0602 12.5466 14.8434C12.5466 13.9571 13.2677 13.236 14.154 13.236C15.0403 13.236 15.7613 13.9571 15.7613 14.8434C15.7613 14.9483 15.7509 15.0507 15.7316 15.1501L18.909 16.7608C19.1256 16.8705 19.2122 17.1351 19.1024 17.3517ZM14.154 14.1153C13.7526 14.1153 13.4261 14.4419 13.4261 14.8433C13.4261 15.2447 13.7526 15.5713 14.154 15.5713C14.5554 15.5713 14.882 15.2447 14.882 14.8433C14.882 14.4419 14.5554 14.1153 14.154 14.1153Z" fill="#0970CD"/>
<path id="Vector_3" d="M24.3278 16.5378H23.614C23.2767 18.426 22.386 20.1249 21.1163 21.4602V23.8502C21.1163 24.5877 20.5163 25.1877 19.7788 25.1877H19.1499V25.9795C19.1499 26.2224 18.9531 26.4192 18.7102 26.4192C18.4674 26.4192 18.2705 26.2224 18.2705 25.9795V23.5253C17.0221 24.1197 15.6263 24.4529 14.154 24.4529C12.6818 24.4529 11.286 24.1197 10.0376 23.5253V28.3954C10.0376 28.7953 10.3629 29.1206 10.7628 29.1206H17.5453C17.9452 29.1206 18.2706 28.7953 18.2706 28.3954V27.8534C18.2706 27.6105 18.4675 27.4137 18.7103 27.4137C18.9531 27.4137 19.15 27.6105 19.15 27.8534V28.3954C19.1499 29.2802 18.4301 30 17.5453 30H10.7628C9.87798 30 9.15812 29.2802 9.15812 28.3954V25.1877H8.52937C7.79186 25.1877 7.19189 24.5878 7.19189 23.8503V21.4602C5.5522 19.7358 4.54443 17.4051 4.54443 14.8433C4.54443 12.2816 5.55214 9.95082 7.19189 8.22635V5.8362C7.19189 5.09875 7.79186 4.49879 8.52937 4.49879H9.15824V3.90362C9.15824 3.66074 9.3551 3.46393 9.59793 3.46393C9.84075 3.46393 10.0376 3.66074 10.0376 3.90362V6.16128C11.2861 5.56694 12.6819 5.23371 14.1541 5.23371C15.6264 5.23371 17.0222 5.56694 18.2706 6.16128V1.80777C18.2706 1.29597 17.8542 0.879498 17.3424 0.879498H10.9658C10.454 0.879498 10.0376 1.29597 10.0376 1.80777V2.02984C10.0376 2.27272 9.8407 2.46953 9.59787 2.46953C9.35504 2.46953 9.15818 2.27272 9.15818 2.02984V1.80777C9.15818 0.811022 9.96909 0.000118256 10.9658 0.000118256H17.3423C18.339 0.000118256 19.1499 0.811022 19.1499 1.80777V4.49879H19.7787C20.5162 4.49879 21.1162 5.09875 21.1162 5.8362V8.22635C22.4558 9.63512 23.3729 11.4487 23.664 13.4622H24.3278C24.9496 13.4622 25.4555 13.9681 25.4555 14.5899V15.4102C25.4555 16.032 24.9496 16.5378 24.3278 16.5378ZM19.1499 24.3084H19.7787C20.0313 24.3084 20.2368 24.1028 20.2368 23.8503V22.2769C19.8935 22.5585 19.5304 22.8168 19.1499 23.0493V24.3084H19.1499ZM8.52937 24.3084H9.15818V23.0492C8.7777 22.8167 8.41464 22.5584 8.07121 22.2769V23.8502C8.07121 24.1028 8.27675 24.3084 8.52937 24.3084ZM9.15818 5.3781H8.52931C8.27669 5.3781 8.07121 5.58359 8.07121 5.83614V7.40953C8.41458 7.12801 8.77765 6.86971 9.15818 6.6372V5.3781ZM19.7787 5.3781H19.1499V6.63726C19.5304 6.86976 19.8935 7.12807 20.2369 7.40959V5.8362C20.2369 5.58359 20.0314 5.3781 19.7787 5.3781ZM14.154 6.11297C9.34015 6.11297 5.42375 10.0294 5.42375 14.8433C5.42375 19.6571 9.34015 23.5735 14.154 23.5735C18.9679 23.5735 22.8843 19.6571 22.8843 14.8433C22.8843 10.0294 18.9679 6.11297 14.154 6.11297ZM24.5761 14.5899C24.5761 14.453 24.4648 14.3416 24.3278 14.3416H23.7507C23.7593 14.5078 23.7637 14.675 23.7637 14.8433C23.7637 15.1179 23.7515 15.3897 23.7288 15.6585H24.3278C24.4648 15.6585 24.5761 15.5471 24.5761 15.4102V14.5899Z" fill="#0970CD"/>
</g>
</g>
</g>
</svg>
