<svg width="30" height="31" viewBox="0 0 30 31" fill="none" xmlns="http://www.w3.org/2000/svg">
<g id="Frame">
<g id="Group">
<g id="28">
<path id="Vector" d="M29.2049 6.41476L24.4931 1.77033C24.4084 1.69196 24.2991 1.64491 24.1836 1.63708C24.0428 1.62772 11.6535 1.63108 11.5124 1.63108C11.3842 1.63108 11.2613 1.68167 11.1706 1.77172C11.08 1.86177 11.0291 1.9839 11.0291 2.11125V15.3866H10.4061V5.80282C10.4061 5.67547 10.3552 5.55334 10.2645 5.46329C10.1739 5.37324 10.051 5.32265 9.92278 5.32265H7.35614C7.22796 5.32265 7.10503 5.37324 7.0144 5.46329C6.92376 5.55334 6.87284 5.67547 6.87284 5.80282V15.3866H6.24981V8.08624C6.24984 8.00487 6.22905 7.92484 6.1894 7.85364L4.81029 5.37984C4.76479 5.30946 4.70222 5.25157 4.62833 5.21148C4.55444 5.17138 4.4716 5.15037 4.3874 5.15037C4.30321 5.15037 4.22037 5.17138 4.14648 5.21148C4.07259 5.25157 4.01002 5.30946 3.96451 5.37984L2.58541 7.85364C2.54576 7.92484 2.52497 8.00487 2.52499 8.08624V15.3866H1.97403C1.84585 15.3866 1.72292 15.4372 1.63228 15.5272C1.54164 15.6173 1.49072 15.7394 1.49072 15.8668V26.8271C1.49093 27.5301 1.77181 28.2044 2.27177 28.7019C2.77172 29.1995 3.4499 29.4797 4.15754 29.4811C11.1043 29.4811 10.7965 29.5186 11.2798 29.4139C11.3501 29.4561 11.4302 29.4792 11.5123 29.4811H28.8646C28.928 29.4812 28.9909 29.4688 29.0496 29.4446C29.1082 29.4205 29.1615 29.3852 29.2064 29.3406C29.2513 29.296 29.2869 29.243 29.3112 29.1847C29.3354 29.1265 29.3479 29.064 29.3479 29.0009V6.75568C29.3428 6.62871 29.292 6.50775 29.2049 6.41476ZM24.636 3.2641L27.6911 6.27546H24.636V3.2641ZM7.83945 6.283H9.43947V15.3866H7.83945V6.283ZM3.49146 8.21027L4.38726 6.60351L5.28306 8.21027V15.3866H3.49146V8.21027ZM4.15754 28.5208C3.70619 28.5197 3.27371 28.3407 2.95499 28.0232C2.63627 27.7057 2.45735 27.2755 2.45748 26.8271V16.3467H12.4077V26.8271C12.4093 27.1662 12.308 27.498 12.117 27.7791C11.9259 28.0602 11.6541 28.2776 11.3368 28.4029C10.8535 28.5886 11.0064 28.5208 4.15754 28.5208ZM12.7661 28.5208C13.5732 27.5501 13.3744 27.8263 13.3744 15.8668C13.3744 15.7394 13.3235 15.6173 13.2329 15.5272C13.1422 15.4372 13.0193 15.3866 12.8911 15.3866H11.9957V2.59143H23.6694V6.75568C23.6694 6.88303 23.7203 7.00516 23.8109 7.09521C23.9016 7.18526 24.0245 7.23585 24.1527 7.23585H28.3811V28.5208H12.7661Z" fill="#0970CD"/>
<path id="Vector_2" d="M13.9695 8.62378H19.2559V9.58412H13.9695V8.62378Z" fill="#0970CD"/>
<path id="Vector_3" d="M13.9695 6.3728H22.3973V7.33315H13.9695V6.3728Z" fill="#0970CD"/>
<path id="Vector_4" d="M13.9695 3.95312H22.3973V4.91347H13.9695V3.95312Z" fill="#0970CD"/>
<path id="Vector_5" d="M13.9695 10.8744H19.2559V11.8347H13.9695V10.8744Z" fill="#0970CD"/>
<path id="Vector_6" d="M13.9695 13.1255H19.2559V14.0858H13.9695V13.1255Z" fill="#0970CD"/>
<path id="Vector_7" d="M13.9695 15.3761H26.314V16.3364H13.9695V15.3761Z" fill="#0970CD"/>
<path id="Vector_8" d="M13.9695 17.6271H26.314V18.5874H13.9695V17.6271Z" fill="#0970CD"/>
<path id="Vector_9" d="M13.9695 19.8777H26.314V20.838H13.9695V19.8777Z" fill="#0970CD"/>
<path id="Vector_10" d="M13.9695 22.1287H26.314V23.089H13.9695V22.1287Z" fill="#0970CD"/>
<path id="Vector_11" d="M13.9695 24.3793H26.314V25.3396H13.9695V24.3793Z" fill="#0970CD"/>
<path id="Vector_12" d="M13.9695 26.6304H26.314V27.5907H13.9695V26.6304Z" fill="#0970CD"/>
<path id="Vector_13" d="M26.3141 8.62366H20.6449C20.5167 8.62366 20.3938 8.67425 20.3032 8.7643C20.2125 8.85435 20.1616 8.97648 20.1616 9.10383V13.6055C20.1616 13.7328 20.2125 13.8549 20.3032 13.945C20.3938 14.035 20.5167 14.0856 20.6449 14.0856H26.3141C26.4423 14.0856 26.5652 14.035 26.6558 13.945C26.7465 13.8549 26.7974 13.7328 26.7974 13.6055V9.10383C26.7974 8.97648 26.7465 8.85435 26.6558 8.7643C26.5652 8.67425 26.4423 8.62366 26.3141 8.62366ZM25.8308 13.1253H21.1282V9.584H25.8308V13.1253Z" fill="#0970CD"/>
</g>
</g>
</g>
</svg>
