<svg width="30" height="30" viewBox="0 0 30 30" fill="none" xmlns="http://www.w3.org/2000/svg">
<g id="Group">
<path id="Vector" d="M4.95399 3.225H4.86536H2.67857C1.27471 3.225 0.1 4.57171 0.1 6.25V23.75C0.1 27.1542 2.47396 29.9 5.35714 29.9H24.6429C27.526 29.9 29.9 27.1542 29.9 23.75V6.25C29.9 4.57171 28.7253 3.225 27.3214 3.225H25.1346H25.046L25.0354 3.13701C24.9331 2.29148 24.6256 1.52882 24.1794 0.979775C23.7337 0.431372 23.1536 0.1 22.5 0.1C21.8464 0.1 21.2663 0.431372 20.8206 0.979775C20.3744 1.52882 20.0669 2.29148 19.9646 3.13701L19.954 3.225H19.8654H17.6346H17.546L17.5353 3.13701C17.433 2.29148 17.1256 1.52882 16.6793 0.979775C16.2336 0.431372 15.6535 0.1 14.9999 0.1C14.3464 0.1 13.7663 0.431372 13.3206 0.979775C12.8743 1.52882 12.5669 2.29148 12.4646 3.13701L12.4539 3.225H12.3653H10.1345H10.0459L10.0353 3.13701C9.93296 2.29148 9.62553 1.52882 9.17928 0.979775C8.73358 0.431402 8.15352 0.100036 7.5 0.1L4.95399 3.225ZM4.95399 3.225L4.96463 3.13701M4.95399 3.225L4.96463 3.13701M4.96463 3.13701C5.06692 2.29148 5.37436 1.52882 5.82061 0.979775C6.26631 0.431402 6.84638 0.100036 7.49989 0.1L4.96463 3.13701ZM9.05062 3.225H9.16874L9.14925 3.10851C9.05332 2.53482 8.83368 2.04868 8.54323 1.70383C8.25323 1.35952 7.88653 1.15 7.5 1.15H7.49995C7.11341 1.15 6.74672 1.35952 6.45672 1.70383C6.16627 2.04868 5.94664 2.53482 5.85069 3.1085L5.83121 3.225H5.94932H9.05062ZM16.5506 3.225H16.6687L16.6493 3.10851C16.5533 2.53482 16.3337 2.04868 16.0432 1.70383C15.7532 1.35952 15.3865 1.15 15 1.15H14.9999C14.6134 1.15 14.2467 1.35952 13.9567 1.70383C13.6663 2.04868 13.4466 2.53482 13.3507 3.1085L13.3312 3.225H13.4493H16.5506ZM24.0506 3.225H24.1687L24.1493 3.10851C24.0533 2.53482 23.8337 2.04868 23.5432 1.70383C23.2532 1.35952 22.8865 1.15 22.5 1.15H22.4999C22.1134 1.15 21.7467 1.35952 21.4567 1.70383C21.1663 2.04868 20.9466 2.53482 20.8507 3.1085L20.8312 3.225H20.9493H24.0506ZM9.14952 4.3915L9.16901 4.275H9.05089H2.67937C2.67911 4.275 2.67884 4.275 2.67857 4.275C1.71588 4.2755 0.972232 5.16715 0.972232 6.25V8.75V8.85H1.07223H28.9294H29.0294V8.75V6.25C29.0294 5.16685 28.2853 4.275 27.3222 4.275H25.1354H25.0468L25.0362 4.36299C24.9339 5.20852 24.6264 5.97118 24.1802 6.52022C23.7345 7.06863 23.1544 7.4 22.5008 7.4C22.2741 7.4 22.0651 7.17996 22.0651 6.875C22.0651 6.57004 22.2741 6.35 22.5008 6.35C22.8873 6.35 23.254 6.14048 23.544 5.79617C23.8345 5.45132 24.0541 4.96518 24.1501 4.3915L24.1695 4.275H24.0514H17.6352H17.5465L17.5359 4.36299C17.4336 5.20852 17.1262 5.97118 16.6799 6.52022C16.2342 7.06863 15.6541 7.4 15.0005 7.4C14.7738 7.4 14.5648 7.17996 14.5648 6.875C14.5648 6.57004 14.7738 6.35 15.0005 6.35C15.3871 6.35 15.7538 6.14048 16.0438 5.79617C16.3342 5.45132 16.5538 4.96518 16.6498 4.3915L16.6693 4.275H16.5512H10.1349H10.0463L10.0356 4.36299C9.93334 5.20852 9.62591 5.97118 9.17966 6.52022C8.73393 7.06863 8.15383 7.4 7.50027 7.4C7.27354 7.4 7.06455 7.17996 7.06455 6.875C7.06455 6.57004 7.27354 6.35 7.50027 6.35C7.8868 6.35 8.25349 6.14048 8.54349 5.79617C8.83394 5.45132 9.05358 4.96518 9.14952 4.3915ZM1.07143 9.9H0.971429V10V23.75C0.971429 26.559 2.91474 28.85 5.35714 28.85H24.6429C27.0853 28.85 29.0286 26.559 29.0286 23.75V10V9.9H28.9286H1.07143Z" fill="#0970CD" stroke="#0970CD" stroke-width="0.2"/>
<path id="Vector_2" d="M17.0369 14.2135L17.0551 14.2128C17.3692 14.2 17.64 14.2474 17.815 14.3653L17.0369 14.2135ZM17.0369 14.2135L17.0366 14.2136M17.0369 14.2135L17.0366 14.2136M17.0366 14.2136C16.9357 14.2185 16.8291 14.2296 16.7183 14.2469C16.2481 14.32 15.6914 14.5066 15.1315 14.8252L15.1809 14.9121L15.1315 14.8252C14.0171 15.4592 12.9047 16.5339 12.3416 17.6717C11.3021 19.7722 11.6957 21.6739 12.9623 22.8302L13.0604 22.9198L13.1194 22.8007L14.7066 19.5927L14.7066 19.5927C14.7473 19.5105 14.8051 19.4445 14.8725 19.4001C14.9396 19.3558 15.0142 19.3342 15.0886 19.3358C15.1591 19.3376 15.2292 19.3601 15.2923 19.4029L15.2924 19.4029C15.3919 19.4702 15.4684 19.5837 15.5001 19.7218C15.5317 19.8599 15.5148 20.0067 15.4544 20.129C15.4544 20.129 15.4544 20.129 15.4544 20.129L13.8671 23.3358L13.8219 23.4272L13.9142 23.4706C14.6605 23.8219 15.4452 23.8635 16.1761 23.5455C16.9051 23.2283 17.5686 22.5586 18.0873 21.5104C18.6499 20.3736 18.89 18.7157 18.8038 17.2791C18.7605 16.558 18.6218 15.9063 18.4425 15.3992C18.3529 15.1457 18.2525 14.9266 18.1478 14.7523C18.044 14.5797 17.9317 14.4439 17.815 14.3653L17.0366 14.2136ZM17.166 13.1163L17.2043 13.1174C17.2967 13.1217 17.3873 13.1312 17.4765 13.1463C17.7471 13.1922 18.0027 13.289 18.2389 13.4481C18.712 13.7668 19.0466 14.2924 19.2752 14.9499C19.5037 15.607 19.6234 16.3874 19.6723 17.2029C19.7701 18.8323 19.5308 20.6423 18.836 22.0464L18.9256 22.0908L18.836 22.0464C18.2054 23.3208 17.3204 24.1386 16.3624 24.5182C15.405 24.8974 14.3671 24.8424 13.4207 24.3577L13.3421 24.3174L13.2924 24.3904C13.1572 24.589 12.9869 24.8141 12.767 25.0252C12.5075 25.2742 12.1871 25.5026 11.799 25.5958L11.8223 25.693L11.799 25.5958C11.4153 25.6879 10.9593 25.6242 10.5305 25.3354L10.5305 25.3354C10.4308 25.2684 10.3542 25.1549 10.3224 25.0168C10.2905 24.8786 10.3073 24.7317 10.3676 24.6094L10.3677 24.6093C10.3975 24.5489 10.4367 24.4968 10.4825 24.4557C10.5283 24.4147 10.5796 24.3854 10.6333 24.3686C10.6869 24.3518 10.7424 24.3475 10.7971 24.3559C10.8517 24.3643 10.9052 24.3853 10.9545 24.4185L10.9545 24.4186C11.085 24.5064 11.2016 24.5573 11.3143 24.5785C11.4277 24.5999 11.5304 24.5899 11.6302 24.5659L11.6068 24.4687L11.6302 24.5659C11.8344 24.5168 12.042 24.3801 12.2243 24.2051C12.3409 24.0932 12.4382 23.973 12.5239 23.8584L12.5785 23.7854L12.5109 23.7243C10.9056 22.2751 10.3532 19.6403 11.5928 17.1354C12.2871 15.7323 13.5073 14.589 14.7606 13.8759C15.5867 13.406 16.4228 13.0938 17.166 13.1163Z" fill="#0970CD" stroke="#0970CD" stroke-width="0.2"/>
</g>
</svg>
