<svg width="44" height="44" viewBox="0 0 44 44" fill="none" xmlns="http://www.w3.org/2000/svg">
<g id="Group 21">
<rect id="background" width="44" height="44" rx="22" fill="#53D1E2" fill-opacity="0.15"/>
<path id="Vector" d="M29.8344 17.4341C29.8469 17.6332 29.8469 17.8324 29.8469 18.0315C29.8469 24.1052 25.7795 31.1035 18.3453 31.1035C16.055 31.1035 13.9274 30.3496 12.1377 29.041C12.4631 29.0837 12.776 29.0979 13.1139 29.0979C15.0037 29.0979 16.7433 28.3725 18.1325 27.135C16.3554 27.0923 14.866 25.7695 14.3529 23.9488C14.6032 23.9914 14.8535 24.0199 15.1164 24.0199C15.4793 24.0199 15.8423 23.9629 16.1802 23.8634C14.3279 23.4367 12.9386 21.5875 12.9386 19.3544V19.2975C13.4768 19.6389 14.1026 19.8522 14.7659 19.8806C13.677 19.0556 12.9637 17.6474 12.9637 16.0543C12.9637 15.2009 13.1639 14.4186 13.5143 13.7358C15.5043 16.5237 18.4955 18.3444 21.8496 18.5436C21.787 18.2022 21.7494 17.8466 21.7494 17.491C21.7494 14.9591 23.5517 12.8966 25.7919 12.8966C26.9558 12.8966 28.0071 13.4513 28.7455 14.3475C29.6591 14.1483 30.5352 13.7643 31.3112 13.238C31.0108 14.3048 30.3725 15.2009 29.534 15.7699C30.3475 15.6703 31.136 15.4143 31.8618 15.0587C31.3113 15.969 30.6229 16.7797 29.8344 17.4341Z" fill="#53D1E2"/>
</g>
</svg>
